<svg width="39" height="66" viewBox="0 0 39 66" fill="none" xmlns="http://www.w3.org/2000/svg">
<path d="M35.0889 9.32715C36.2071 11.6155 37.3254 13.9038 38.5405 16.3923C37.6072 16.2444 36.8411 16.1312 36.0046 16.0007C35.9694 16.2879 35.9078 16.5489 35.9254 16.8099C36.3128 25.9807 33.3807 34.1421 28.1768 41.564C21.3703 51.2829 12.3449 58.087 0.862914 61.5673C0.633978 61.6369 0.396236 61.6804 0 61.5325C0.396236 61.1845 0.801277 60.8539 1.1799 60.4971C5.85548 56.1815 9.35997 51.0566 12.072 45.3489C12.4418 44.5745 13.1902 43.8001 13.9563 43.4086C25.3151 37.666 32.1479 28.6431 34.2348 16.1661C34.4989 14.5651 34.5694 12.9293 34.7279 11.311C34.7895 10.6671 34.8423 10.0232 34.8952 9.37935C34.9568 9.36195 35.0184 9.35325 35.0801 9.33585L35.0889 9.32715Z" fill="white"/>
<path d="M30.491 24.8242C26.8192 31.9938 21.1839 37.0229 13.9019 40.3901C13.9988 39.0241 14.1573 37.7625 14.1485 36.5008C14.1397 33.9776 12.6428 33.0814 10.3358 34.169C7.70304 35.4045 6.08287 37.5797 4.7797 40.0595C4.66523 40.277 4.56837 40.4945 4.4539 40.7034C4.4451 40.7295 4.39226 40.7295 4.03125 40.8774C4.49793 38.9632 4.77089 37.1969 5.36965 35.5437C7.76467 28.9484 14.0692 25.3115 21.0606 26.3904C24.3714 26.9037 27.5501 26.7471 30.491 24.8242Z" fill="white"/>
<path d="M13.3674 18.6546C14.0366 19.9598 14.5649 20.9865 15.146 22.1002C14.8378 22.2568 14.5825 22.3873 14.2215 22.5787C13.9749 21.7609 13.7548 21.0387 13.5435 20.3165C13.1296 18.8548 12.839 18.6372 11.1484 18.7155C11.6327 18.1587 11.9937 17.6888 12.4164 17.2625C14.6265 15.0351 16.8102 12.7815 19.082 10.6237C19.5574 10.1713 20.3499 9.84062 21.0015 9.82322C24.4355 9.74491 27.8608 9.78842 31.2948 9.78842C31.5678 9.78842 31.8319 9.81452 32.3779 9.83192C30.9955 11.0762 29.8155 12.1899 28.5828 13.2253C28.4067 13.3732 27.9224 13.2514 27.623 13.1557C26.7161 12.8598 25.818 12.5205 24.9198 12.1986C24.867 12.303 24.8142 12.4074 24.7613 12.5118C25.0783 12.6945 25.3777 12.912 25.7123 13.06C28.0809 14.1302 29.3313 16.1923 29.164 18.8199C29.0319 20.9604 27.3853 22.9007 25.0959 23.6141C22.2607 24.5016 19.0996 22.9355 18.219 20.0642C17.8756 18.9331 17.2945 18.5589 16.185 18.6372C15.3309 18.6981 14.4768 18.6459 13.3762 18.6459L13.3674 18.6546Z" fill="white"/>
<path d="M24.3793 48.5077C20.232 55.8339 14.5791 61.6896 7.15625 65.8921C7.55249 65.1612 8.01036 64.4478 8.33615 63.6821C9.56008 60.863 11.506 58.8096 14.2181 57.2173C17.8986 55.0595 21.0421 52.1534 23.895 48.9689C24.0447 48.8036 24.2208 48.6556 24.3793 48.499V48.5077Z" fill="white"/>
<path d="M31.5947 7.17824C30.8198 5.29885 29.7279 4.15033 27.9141 3.53256C29.6311 2.81039 30.9078 1.85329 31.5594 0C32.255 1.72278 33.3205 2.84519 35.1344 3.45426C33.4614 4.27214 32.1934 5.26404 31.5947 7.16954V7.17824Z" fill="white"/>
</svg>
