<svg width="11" height="12" viewBox="0 0 11 12" fill="none" xmlns="http://www.w3.org/2000/svg">
<path d="M2.28906 5.99967V2.33301M8.70573 9.66634V8.29134M2.28906 9.66634V7.83301M8.70573 6.45801V2.33301M5.4974 3.70801V2.33301M5.4974 9.66634V5.54134" stroke="#F8F9FA" stroke-width="0.458333" stroke-linecap="round"/>
<path d="M2.29167 7.83333C2.79793 7.83333 3.20833 7.42293 3.20833 6.91667C3.20833 6.41041 2.79793 6 2.29167 6C1.78541 6 1.375 6.41041 1.375 6.91667C1.375 7.42293 1.78541 7.83333 2.29167 7.83333Z" stroke="#F8F9FA" stroke-width="0.458333" stroke-linecap="round"/>
<path d="M5.5026 5.54134C6.00887 5.54134 6.41927 5.13094 6.41927 4.62467C6.41927 4.11841 6.00887 3.70801 5.5026 3.70801C4.99634 3.70801 4.58594 4.11841 4.58594 4.62467C4.58594 5.13094 4.99634 5.54134 5.5026 5.54134Z" stroke="#F8F9FA" stroke-width="0.458333" stroke-linecap="round"/>
<path d="M8.70573 8.29134C9.21199 8.29134 9.6224 7.88094 9.6224 7.37467C9.6224 6.86841 9.21199 6.45801 8.70573 6.45801C8.19947 6.45801 7.78906 6.86841 7.78906 7.37467C7.78906 7.88094 8.19947 8.29134 8.70573 8.29134Z" stroke="#F8F9FA" stroke-width="0.458333" stroke-linecap="round"/>
</svg>
